<svg width="840" height="312" viewBox="0 0 840 312" fill="none" xmlns="http://www.w3.org/2000/svg">
<path d="M375.168 305.5C371.361 305.5 368.093 304.154 365.362 301.462C362.671 298.732 361.325 295.463 361.325 291.656C361.325 287.888 362.671 284.658 365.362 281.966C368.093 279.274 371.361 277.928 375.168 277.928C378.86 277.928 382.09 279.274 384.858 281.966C387.627 284.658 389.011 287.888 389.011 291.656C389.011 294.194 388.358 296.521 387.05 298.636C385.781 300.712 384.109 302.385 382.032 303.654C379.956 304.884 377.668 305.5 375.168 305.5ZM409.647 304V185.87H456.945C465.635 185.87 472.884 187.158 478.69 189.735C484.497 192.311 488.861 195.887 491.784 200.463C494.706 205.001 496.168 210.231 496.168 216.153C496.168 220.767 495.245 224.824 493.399 228.323C491.553 231.784 489.015 234.63 485.785 236.86C482.593 239.052 478.94 240.609 474.826 241.532V242.686C479.325 242.878 483.535 244.147 487.458 246.492C491.419 248.838 494.629 252.126 497.09 256.356C499.551 260.547 500.782 265.546 500.782 271.353C500.782 277.621 499.225 283.216 496.11 288.138C493.034 293.021 488.477 296.886 482.44 299.732C476.402 302.577 468.962 304 460.117 304H409.647ZM434.622 283.581H454.984C461.944 283.581 467.02 282.254 470.211 279.601C473.403 276.909 474.999 273.333 474.999 268.873C474.999 265.604 474.21 262.72 472.634 260.22C471.057 257.721 468.808 255.76 465.885 254.337C463.001 252.914 459.56 252.203 455.56 252.203H434.622V283.581ZM434.622 235.302H453.138C456.56 235.302 459.598 234.706 462.251 233.514C464.943 232.284 467.058 230.553 468.596 228.323C470.173 226.093 470.961 223.42 470.961 220.306C470.961 216.037 469.442 212.596 466.404 209.981C463.405 207.366 459.137 206.058 453.599 206.058H434.622V235.302ZM537.395 304H510.631L551.411 185.87H583.597L624.319 304H597.556L567.965 212.865H567.043L537.395 304ZM535.722 257.567H598.94V277.063H535.722V257.567ZM638.538 304V185.87H663.513V237.956H665.071L707.581 185.87H737.517L693.68 238.763L738.037 304H708.158L675.799 255.433L663.513 270.43V304H638.538ZM750.524 304V185.87H830.124V206.462H775.5V234.61H826.028V255.202H775.5V283.408H830.354V304H750.524Z" fill="white"/>
<g filter="url(#filter0_d_217_16)">
<path d="M65.1168 289.466L20.1001 122.036C129.248 158.996 197.332 148.581 330.215 144.527L285.199 289.466C197.866 307.071 149.623 307.779 65.1168 289.466Z" fill="#FFD6B6"/>
<path d="M65.1168 289.466L20.1001 122.036C129.248 158.996 197.332 148.581 330.215 144.527L285.199 289.466C197.866 307.071 149.623 307.779 65.1168 289.466Z" stroke="black"/>
</g>
<path d="M53.0743 243.097C53.5643 245.139 53.8394 246.486 53.8394 246.943C53.5748 245.643 53.3199 244.36 53.0743 243.097C48.9483 225.902 29.5846 159.441 30.8679 160.082C33.7393 161.518 48.8144 162.236 54.5573 159.365C52.445 162.181 40.5268 178.532 53.0743 243.097Z" fill="#FFE3CD"/>
<g filter="url(#filter1_d_217_16)">
<path d="M55.0687 157.57C46.7248 160.925 0 165.521 0 117.711C0 109.759 10.0116 82.0796 45.056 87.1123C45.056 46.851 92.6162 41.8183 105.132 54.4C120.151 11.6224 217.775 19.1714 222.781 61.9489C257.826 36.7857 302.883 54.4 300.38 99.6939C320.405 99.6939 360.456 99.6939 347.94 150.02C341.552 175.708 300.03 182.841 283.343 177.809C267.322 203.978 217.775 200.347 205.259 182.733C169.213 198.837 146.017 184.302 137.673 172.559C97.6226 192.69 62.5782 171.829 55.0687 157.57Z" fill="#EA7362"/>
</g>
<path d="M222.573 216.793C219.636 226.425 202.309 244.638 156.493 240.435C158.696 247.44 173.674 262.5 215.965 266.703C258.256 270.906 237.992 235.181 222.573 216.793Z" fill="white"/>
<path d="M239.047 244.072C236.766 235.697 227.099 220.981 222.536 216.793C206.569 239.825 190.925 238.688 170.851 241.201C200.963 241.201 219.007 234.499 223.569 226.124C226.658 227.081 236.894 240.483 239.047 244.072Z" fill="#DADADA"/>
<path d="M219.665 244.072C213.201 248.762 188.417 255.478 176.593 257.233L181.661 259.865C199.903 257.759 216.287 247.582 219.665 244.072Z" fill="#DADADA"/>
<path d="M61.7359 138.547C50.2502 140.7 10.05 155.775 0 121.318C2.0018 158.031 37.5338 164.264 55.0496 159.165C85.0766 193.838 125.318 179.935 137.829 172.286C150.34 197.781 192.797 193.252 205.308 183.054C227.828 218.747 282.837 190.776 282.837 178.029C336.676 183.054 356.776 155.058 349.598 125.625C350.969 138.547 344.573 178.029 275.658 151.373C270.633 172.286 227.561 193.822 204.118 157.238C195.976 175.062 159.16 172.978 143.367 152.16C123.472 167.979 68.1966 159.165 61.7359 138.547Z" fill="#B74242"/>
<path d="M298.63 244.79C293.844 259.386 256.994 311.551 65.3252 289.297C179.465 315.858 246.944 295.758 284.99 289.297L298.63 244.79Z" fill="#EFBC95"/>
<path d="M45.2251 87.5786C29.7194 83.5586 12.2036 90.4501 5.74288 102.654C13.6393 92.6036 27.9965 85.425 48.8144 91.1679C54.5573 55.2749 93.3217 51.6856 107.679 58.8642C160.801 10.7677 207.461 46.6606 222.536 64.6071C280.539 42.7842 295.997 82.7929 296.476 105.525C320.022 98.6337 340.265 110.55 346.726 116.293C339.548 99.7822 312.987 97.6286 300.065 99.7822C302.219 40.1999 239.765 45.2249 222.536 62.4536C207.461 0.717625 105.525 25.1249 105.525 54.5571C76.0931 33.7392 39.4823 65.325 45.2251 87.5786Z" fill="#EF8475"/>
<ellipse cx="175.158" cy="30.1499" rx="33.0215" ry="30.1501" fill="#B74242"/>
<ellipse cx="175.158" cy="13.6392" rx="22.9715" ry="12.2036" fill="#E98282"/>
<ellipse cx="174.44" cy="53.8393" rx="13.6393" ry="5.02502" fill="#E98282"/>
<defs>
<filter id="filter0_d_217_16" x="20.1001" y="122.036" width="310.115" height="189.515" filterUnits="userSpaceOnUse" color-interpolation-filters="sRGB">
<feFlood flood-opacity="0" result="BackgroundImageFix"/>
<feColorMatrix in="SourceAlpha" type="matrix" values="0 0 0 0 0 0 0 0 0 0 0 0 0 0 0 0 0 0 127 0" result="hardAlpha"/>
<feOffset dy="8.61431"/>
<feComposite in2="hardAlpha" operator="out"/>
<feColorMatrix type="matrix" values="0 0 0 0 0 0 0 0 0 0 0 0 0 0 0 0 0 0 0.25 0"/>
<feBlend mode="normal" in2="BackgroundImageFix" result="effect1_dropShadow_217_16"/>
<feBlend mode="normal" in="SourceGraphic" in2="effect1_dropShadow_217_16" result="shape"/>
</filter>
<filter id="filter1_d_217_16" x="0" y="25.8428" width="350.315" height="176.593" filterUnits="userSpaceOnUse" color-interpolation-filters="sRGB">
<feFlood flood-opacity="0" result="BackgroundImageFix"/>
<feColorMatrix in="SourceAlpha" type="matrix" values="0 0 0 0 0 0 0 0 0 0 0 0 0 0 0 0 0 0 127 0" result="hardAlpha"/>
<feOffset dy="5.74288"/>
<feComposite in2="hardAlpha" operator="out"/>
<feColorMatrix type="matrix" values="0 0 0 0 0 0 0 0 0 0 0 0 0 0 0 0 0 0 0.25 0"/>
<feBlend mode="normal" in2="BackgroundImageFix" result="effect1_dropShadow_217_16"/>
<feBlend mode="normal" in="SourceGraphic" in2="effect1_dropShadow_217_16" result="shape"/>
</filter>
</defs>
</svg>
